<svg width="360" height="360" viewBox="0 0 360 360" fill="none" xmlns="http://www.w3.org/2000/svg">
<circle cx="180" cy="180" r="180" fill="white"/>
<path fill-rule="evenodd" clip-rule="evenodd" d="M209.525 136.861C214.381 133.436 219.676 130.717 225.25 128.77C224.016 126.315 222.588 123.954 220.978 121.712C216.868 115.988 211.653 111.147 205.639 107.475C199.626 103.802 192.938 101.373 185.969 100.33C179.001 99.288 171.894 99.6538 165.069 101.406C158.245 103.158 151.841 106.261 146.236 110.532C140.632 114.802 135.941 120.153 132.44 126.268C128.94 132.383 126.702 139.138 125.858 146.133C125.014 153.129 125.581 160.222 127.526 166.994L108.543 172.447C106.989 167.038 106.075 161.479 105.809 155.885C103.752 155.788 101.684 155.875 99.6306 156.146C94.6728 156.802 89.9156 158.523 85.6851 161.19C81.4546 163.857 77.851 167.407 75.1213 171.597C72.3916 175.788 70.6005 180.519 69.8707 185.466C69.1409 190.414 69.4898 195.46 70.8934 200.26C72.297 205.06 74.7221 209.5 78.0024 213.275C81.2828 217.05 85.3407 220.07 89.8979 222.13C94.3293 224.132 99.1309 225.18 103.991 225.207L103.991 225.201C131.341 206.889 150.562 202.832 188.511 208.173L183.867 226.749C165.062 223.203 152.752 224.077 139.247 228.432C127.958 232.072 119.531 242.815 123.496 253.994C157.888 241.388 178.242 240.046 217.613 253.994L209.254 271.641C172.542 258.542 151.308 260.68 112.35 280C107.185 266.002 104.584 256.019 103.812 244.705C96.2444 244.654 88.7688 243.018 81.8677 239.899C74.7481 236.682 68.4086 231.962 63.2839 226.065C58.1592 220.168 54.3705 213.232 52.1777 205.733C49.9849 198.234 49.4399 190.35 50.5799 182.621C51.72 174.892 54.5183 167.5 58.7827 160.954C63.0472 154.408 68.6771 148.861 75.2862 144.695C81.8954 140.528 89.3275 137.84 97.0728 136.815C100.544 136.356 104.041 136.236 107.516 136.45C109.1 129.45 111.72 122.71 115.299 116.456C120.111 108.049 126.561 100.693 134.266 94.8218C141.971 88.9509 150.775 84.6848 160.158 82.2758C169.54 79.8669 179.311 79.3641 188.891 80.7971C198.471 82.2302 207.667 85.57 215.934 90.619C224.201 95.668 231.371 102.324 237.021 110.192C240.375 114.863 243.153 119.906 245.304 125.209C251.965 125.106 258.621 126.048 265.024 128.016C274.336 130.879 282.869 135.836 289.967 142.509C297.065 149.181 302.54 157.391 305.973 166.508C309.405 175.626 310.703 185.408 309.767 195.105C308.831 204.802 305.687 214.155 300.574 222.448C295.462 230.741 288.517 237.752 280.274 242.944C272.031 248.136 262.708 251.37 253.02 252.399L251.01 233.47C257.806 232.748 264.347 230.479 270.13 226.837C275.913 223.195 280.784 218.276 284.371 212.459C287.957 206.641 290.164 200.079 290.82 193.276C291.477 186.474 290.566 179.611 288.158 173.215C285.75 166.819 281.909 161.059 276.929 156.378C271.95 151.697 265.964 148.219 259.431 146.211C252.899 144.203 245.993 143.718 239.244 144.794C232.494 145.87 226.081 148.477 220.497 152.416L209.525 136.861ZM220.279 237.276C228.486 237.276 235.14 230.622 235.14 222.415C235.14 214.208 228.486 207.554 220.279 207.554C212.072 207.554 205.418 214.208 205.418 222.415C205.418 230.622 212.072 237.276 220.279 237.276Z" fill="#503CF5"/>
</svg>
