<svg width="75" height="73" viewBox="0 0 75 73" fill="none" xmlns="http://www.w3.org/2000/svg">
<path fill-rule="evenodd" clip-rule="evenodd" d="M1.94706 9.92C2.52515 6.23304 3.05998 2.82194 2.76566 1.10583C2.15008 -2.48345 17.4449 9.07981 21.2977 17.9088C23.1266 21.9106 22.5578 26.5824 19.4949 29.627C15.4664 33.6314 8.64905 33.3045 4.26787 28.897C1.63345 26.2467 0.479729 22.7245 0.854361 19.4665C0.877423 16.7419 1.42957 13.2204 1.94706 9.92ZM18.7599 34.0015C19.8088 33.4699 20.7861 32.7727 21.6557 31.9083C22.3606 31.2076 22.9561 30.4354 23.4428 29.6111C23.6076 29.7241 23.7643 29.8537 23.9107 30.0001L60.7818 66.8712C62.0652 68.1546 62.0652 70.2355 60.7817 71.5189C59.4983 72.8023 57.4175 72.8023 56.1341 71.5189L19.263 34.6478C19.0646 34.4494 18.8969 34.232 18.7599 34.0015ZM55.6806 3.12639C56.4354 2.35433 57.672 2.33656 58.4487 3.0866C59.2287 3.83993 59.2504 5.08302 58.4971 5.86311L43.6886 21.1978L48.289 25.7749L62.9831 10.5587C63.7341 9.78097 64.9734 9.75934 65.7511 10.5104C66.5288 11.2614 66.5504 12.5006 65.7994 13.2783L51.0611 28.5403L55.6317 33.1109L70.9256 18.3418C71.7038 17.5903 72.9438 17.6119 73.6953 18.3901C74.4462 19.1676 74.4253 20.4063 73.6488 21.1581L58.416 35.9055C57.2612 37.059 55.8907 37.9742 54.3827 38.5988C52.8724 39.2244 51.2537 39.5464 49.6189 39.5464C47.9842 39.5464 46.3655 39.2244 44.8552 38.5988C44.3725 38.3989 43.9039 38.1692 43.452 37.9114L39.7735 41.5899L35.1258 36.9422L38.8047 33.2634C38.5473 32.812 38.3179 32.3439 38.1183 31.8619C37.4927 30.3516 37.1707 28.7328 37.1707 27.0981C37.1707 25.4634 37.4927 23.8447 38.1183 22.3344C38.7312 20.8546 39.6196 19.5457 40.7425 18.4062L40.7423 18.4058L55.6806 3.12639ZM26.3627 45.7052L31.0104 50.3529L10.3047 71.0586C9.02127 72.3421 6.94044 72.3421 5.65701 71.0586C4.37359 69.7752 4.37359 67.6944 5.65701 66.411L26.3627 45.7052Z" fill="white"/>
</svg>
