<svg width="644" height="174" viewBox="0 0 644 174" fill="none" xmlns="http://www.w3.org/2000/svg">
<path d="M29.456 141.536L11.128 120.424L70.52 55H106.944L29.456 141.536ZM0.224001 171V8.59999H30.848V171H0.224001ZM74.464 171L35.952 114.856L55.904 93.744L110.424 171H74.464ZM126.916 171V55H157.54V171H126.916ZM142.228 36.208C137.588 36.208 133.489 34.5067 129.932 31.104C126.375 27.5467 124.596 23.3707 124.596 18.576C124.596 13.7813 126.375 9.68266 129.932 6.27999C133.489 2.72266 137.588 0.943991 142.228 0.943991C147.023 0.943991 151.121 2.72266 154.524 6.27999C158.081 9.68266 159.86 13.7813 159.86 18.576C159.86 23.3707 158.081 27.5467 154.524 31.104C151.121 34.5067 147.023 36.208 142.228 36.208ZM233.571 173.784C220.733 173.784 210.989 170.613 204.339 164.272C197.843 157.931 194.595 148.883 194.595 137.128V18.808H225.219V130.4C225.219 135.349 226.301 139.139 228.467 141.768C230.632 144.243 233.803 145.48 237.979 145.48C239.525 145.48 241.227 145.171 243.083 144.552C244.939 143.779 246.872 142.696 248.883 141.304L259.555 164.272C255.843 167.056 251.667 169.299 247.027 171C242.541 172.856 238.056 173.784 233.571 173.784ZM175.803 80.984V55H254.219V80.984H175.803ZM332.995 173.784C320.931 173.784 310.182 171.232 300.747 166.128C291.313 160.869 283.966 153.677 278.707 144.552C273.449 135.272 270.819 124.755 270.819 113C270.819 101.091 273.449 90.5733 278.707 81.448C283.966 72.3227 291.235 65.208 300.515 60.104C309.795 54.8453 320.467 52.216 332.531 52.216C344.131 52.216 354.726 55.0773 364.315 60.8C373.905 66.5227 380.865 74.7973 385.195 85.624L356.427 95.832C354.262 91.3467 350.859 87.7893 346.219 85.16C341.734 82.376 336.707 80.984 331.139 80.984C325.417 80.984 320.39 82.376 316.059 85.16C311.729 87.7893 308.326 91.5013 305.851 96.296C303.377 101.091 302.139 106.659 302.139 113C302.139 119.341 303.377 124.909 305.851 129.704C308.326 134.344 311.806 138.056 316.291 140.84C320.777 143.624 325.881 145.016 331.603 145.016C337.171 145.016 342.198 143.547 346.683 140.608C351.323 137.669 354.726 133.803 356.891 129.008L385.891 139.216C381.406 150.197 374.369 158.704 364.779 164.736C355.345 170.768 344.75 173.784 332.995 173.784ZM403.964 171V8.59999H434.588V171H403.964ZM480.988 171V111.608H511.612V171H480.988ZM480.988 111.608C480.988 103.72 480.06 97.6107 478.204 93.28C476.348 88.9493 473.796 85.856 470.548 84C467.3 81.9893 463.51 80.984 459.18 80.984C451.292 80.8293 445.182 83.2267 440.852 88.176C436.676 93.1253 434.588 100.472 434.588 110.216H424.38C424.38 97.8427 426.158 87.4027 429.716 78.896C433.428 70.2347 438.532 63.6613 445.028 59.176C451.678 54.536 459.412 52.216 468.228 52.216C477.508 52.216 485.318 54.072 491.66 57.784C498.156 61.496 503.105 67.296 506.508 75.184C509.91 82.9173 511.612 92.9707 511.612 105.344V111.608H480.988ZM536.044 171V55H564.812L566.668 76.344V171H536.044ZM612.836 171V111.608H643.46V171H612.836ZM612.836 111.608C612.836 103.72 611.908 97.6107 610.052 93.28C608.351 88.9493 605.876 85.856 602.628 84C599.38 81.9893 595.591 80.984 591.26 80.984C583.372 80.8293 577.263 83.2267 572.932 88.176C568.756 93.1253 566.668 100.472 566.668 110.216H556.46C556.46 97.8427 558.239 87.4027 561.796 78.896C565.508 70.2347 570.612 63.6613 577.108 59.176C583.759 54.536 591.492 52.216 600.308 52.216C609.434 52.216 617.244 54.072 623.74 57.784C630.236 61.496 635.186 67.296 638.588 75.184C641.991 82.9173 643.615 92.9707 643.46 105.344V111.608H612.836Z" fill="#503CF5"/>
</svg>
