<svg xmlns="http://www.w3.org/2000/svg" viewBox="0 0 1569.3 1562.37">
    <defs>
        <style>.cls-1{fill:#fff;}</style>
    </defs>
    <title>onRuntime Logo</title>
    <g id="Layer_2" data-name="Layer 2">
        <g id="Layer_2-2" data-name="Layer 2">
            <path class="cls-1" d="M1569.3,784.64c0,397.83-296.08,726.51-679.89,777.73,231.25-125.82,388.2-370.94,388.2-652.72a741.1,741.1,0,0,0-47.36-261.54,463.57,463.57,0,0,0-69.62-138.69l0-.06a465,465,0,0,0-376-190.64c-257.32,0-465.92,208.6-465.92,465.92s208.6,465.94,465.92,465.94c142.24,0,269.59-63.73,355.05-164.21C1058.12,1326.76,849,1497.77,604,1497.77c-116.28,0-224.46-38.5-314.76-104.63l0,0a789.27,789.27,0,0,1-168.1-189.53A781.08,781.08,0,0,1,0,784.64C0,570.47,85.81,376.33,224.92,234.76,367.28,89.86,565.47,0,784.64,0,1218,0,1569.3,351.29,1569.3,784.64Z"/>
        </g>
    </g>
</svg>