<svg width="178" height="42" viewBox="0 0 178 42" fill="none" xmlns="http://www.w3.org/2000/svg">
<path fill-rule="evenodd" clip-rule="evenodd" d="M108.407 0.112793L178 6.20143L174.946 41.1104L105.352 35.0218L105.677 31.3176C105.677 31.3176 105.677 31.3177 105.677 31.3177C107.226 31.4532 108.593 30.3068 108.728 28.757C108.864 27.2072 107.717 25.8409 106.168 25.7053C106.168 25.7053 106.168 25.7053 106.168 25.7053L106.315 24.0216L106.315 24.0216C107.865 24.1572 109.231 23.0107 109.367 21.4609C109.502 19.9111 108.356 18.5448 106.806 18.4092L106.806 18.4092L106.953 16.7255L106.953 16.7255C108.503 16.8611 109.869 15.7147 110.005 14.1648C110.141 12.615 108.994 11.2487 107.444 11.1131L107.444 11.1131L107.592 9.42944L107.592 9.42945C109.141 9.56504 110.508 8.41859 110.643 6.86877C110.779 5.31896 109.632 3.95266 108.083 3.81707L108.083 3.81706L108.407 0.112793Z" fill="#8E05C2"/>
<path d="M124.873 25.5276C123.96 25.4477 123.17 25.175 122.502 24.7094C121.85 24.2301 121.36 23.6217 121.033 22.8842L120.434 29.7313L117.425 29.4681L118.873 12.9229L121.499 13.1526L121.323 15.1731C121.832 14.5239 122.448 14.0349 123.17 13.706C123.894 13.3622 124.697 13.2288 125.58 13.3061C126.374 13.3755 127.086 13.5962 127.717 13.9681C128.363 14.3413 128.908 14.8338 129.352 15.4458C129.797 16.0427 130.123 16.7197 130.328 17.4766C130.55 18.2199 130.624 19.0106 130.55 19.8487C130.451 20.9861 130.136 21.9991 129.606 22.8878C129.091 23.7777 128.42 24.4655 127.593 24.9512C126.782 25.4232 125.876 25.6153 124.873 25.5276ZM124.087 22.88C124.551 22.9206 124.978 22.86 125.37 22.6981C125.761 22.5363 126.105 22.3025 126.404 21.9968C126.718 21.6775 126.961 21.3142 127.132 20.9069C127.32 20.486 127.434 20.0435 127.475 19.5796C127.518 19.0857 127.476 18.622 127.348 18.1886C127.235 17.7564 127.042 17.3701 126.77 17.0296C126.5 16.6742 126.17 16.389 125.782 16.174C125.409 15.9604 124.99 15.8333 124.526 15.7927C124.242 15.7678 123.945 15.7946 123.637 15.8732C123.344 15.9381 123.056 16.0486 122.771 16.2046C122.486 16.3607 122.228 16.5492 121.997 16.7704C121.782 16.9928 121.617 17.2423 121.502 17.5188L121.26 20.2801C121.402 20.7298 121.607 21.1474 121.875 21.5328C122.158 21.9194 122.492 22.2352 122.878 22.4801C123.265 22.71 123.668 22.8433 124.087 22.88Z" fill="white"/>
<path d="M131.568 22.3808C131.635 21.6175 131.903 20.9699 132.372 20.4378C132.857 19.8921 133.495 19.4955 134.285 19.248C135.076 19.0005 135.965 18.9199 136.953 19.0063C137.447 19.0495 137.945 19.1308 138.447 19.2502C138.95 19.3695 139.381 19.5279 139.741 19.7252L139.796 19.0967C139.861 18.3483 139.687 17.7525 139.273 17.3091C138.875 16.8671 138.241 16.6081 137.373 16.5321C136.73 16.4758 136.106 16.5344 135.503 16.7078C134.9 16.8812 134.257 17.1568 133.576 17.5345L132.783 15.4745C133.606 15.0337 134.433 14.7215 135.263 14.5378C136.108 14.3554 136.98 14.3034 137.878 14.382C139.554 14.5287 140.82 15.0616 141.674 15.9809C142.544 16.9015 142.911 18.1401 142.774 19.6966L142.446 23.4456C142.419 23.7599 142.452 23.989 142.545 24.1329C142.653 24.2781 142.832 24.3767 143.084 24.4289L142.87 26.8759C142.597 26.8973 142.347 26.9131 142.119 26.9234C141.907 26.935 141.726 26.9342 141.577 26.9211C140.978 26.8687 140.533 26.6941 140.243 26.3972C139.967 26.1016 139.809 25.756 139.768 25.3603L139.754 24.7483C139.187 25.3623 138.506 25.8155 137.712 26.1079C136.917 26.4003 136.123 26.5119 135.33 26.4425C134.552 26.3744 133.862 26.1557 133.261 25.7864C132.676 25.4034 132.228 24.9194 131.918 24.3342C131.623 23.7354 131.507 23.0842 131.568 22.3808ZM138.834 23.6272C139.014 23.4621 139.164 23.2942 139.285 23.1238C139.405 22.9534 139.472 22.7933 139.485 22.6437L139.589 21.4538C139.243 21.2728 138.864 21.1265 138.451 21.015C138.04 20.8885 137.648 20.8089 137.273 20.7762C136.495 20.7081 135.837 20.8239 135.298 21.1236C134.775 21.4097 134.489 21.8296 134.441 22.3833C134.415 22.6826 134.472 22.9742 134.613 23.258C134.754 23.5418 134.975 23.7798 135.275 23.9719C135.574 24.164 135.941 24.2791 136.375 24.317C136.824 24.3563 137.273 24.3126 137.722 24.186C138.171 24.0443 138.542 23.8581 138.834 23.6272Z" fill="white"/>
<path d="M149.276 27.6626C148.273 27.5748 147.33 27.3264 146.446 26.9173C145.561 26.5082 144.818 25.953 144.216 25.2518L145.465 23.393C146.118 24.0233 146.77 24.5026 147.42 24.8309C148.085 25.1605 148.732 25.3528 149.36 25.4078C149.944 25.4589 150.417 25.3947 150.779 25.2153C151.157 25.0372 151.364 24.7386 151.401 24.3195C151.426 24.0352 151.347 23.8097 151.166 23.643C150.986 23.4613 150.714 23.2943 150.35 23.1418C150.001 22.9906 149.572 22.8173 149.061 22.6218C148.218 22.2615 147.516 21.9211 146.956 21.6007C146.396 21.2802 145.984 20.9048 145.72 20.4746C145.472 20.0306 145.376 19.4869 145.433 18.8433C145.501 18.0651 145.754 17.4161 146.191 16.8964C146.645 16.363 147.237 15.97 147.968 15.7172C148.714 15.4658 149.566 15.382 150.524 15.4658C151.362 15.5391 152.144 15.7432 152.868 16.078C153.594 16.3979 154.239 16.8766 154.801 17.5139L153.422 19.3161C152.864 18.7998 152.325 18.4133 151.804 18.1566C151.285 17.885 150.749 17.7249 150.195 17.6765C149.881 17.649 149.578 17.6602 149.287 17.7102C149.011 17.7614 148.775 17.869 148.58 18.0329C148.401 18.1831 148.298 18.4154 148.27 18.7297C148.246 19.014 148.301 19.2451 148.436 19.4228C148.587 19.5868 148.815 19.7425 149.119 19.8897C149.438 20.0383 149.823 20.2077 150.273 20.3979C151.193 20.7498 151.962 21.0961 152.58 21.4367C153.214 21.7787 153.677 22.1736 153.97 22.6215C154.264 23.0544 154.379 23.63 154.316 24.3484C154.214 25.5158 153.708 26.3914 152.797 26.9753C151.886 27.5592 150.713 27.7883 149.276 27.6626Z" fill="white"/>
<path d="M160.369 28.6331C159.366 28.5454 158.423 28.2969 157.539 27.8878C156.655 27.4787 155.912 26.9235 155.309 26.2224L156.558 24.3635C157.211 24.9938 157.863 25.4731 158.513 25.8014C159.178 26.131 159.825 26.3233 160.453 26.3783C161.037 26.4294 161.51 26.3652 161.873 26.1858C162.25 26.0077 162.457 25.7091 162.494 25.2901C162.519 25.0057 162.441 24.7802 162.259 24.6135C162.079 24.4319 161.807 24.2648 161.443 24.1123C161.095 23.9612 160.665 23.7878 160.154 23.5924C159.311 23.2321 158.609 22.8917 158.049 22.5712C157.489 22.2507 157.077 21.8754 156.813 21.4451C156.565 21.0012 156.47 20.4574 156.526 19.8139C156.594 19.0356 156.847 18.3866 157.284 17.8669C157.738 17.3336 158.331 16.9405 159.062 16.6878C159.807 16.4363 160.659 16.3525 161.617 16.4363C162.455 16.5096 163.237 16.7137 163.961 17.0486C164.688 17.3685 165.332 17.8471 165.894 18.4845L164.515 20.2866C163.957 19.7703 163.418 19.3838 162.897 19.1271C162.378 18.8555 161.842 18.6955 161.288 18.647C160.974 18.6195 160.671 18.6307 160.38 18.6807C160.104 18.732 159.869 18.8395 159.673 19.0034C159.494 19.1536 159.391 19.3859 159.364 19.7002C159.339 19.9845 159.394 20.2156 159.529 20.3933C159.681 20.5574 159.908 20.713 160.212 20.8603C160.531 21.0088 160.916 21.1782 161.367 21.3684C162.286 21.7203 163.055 22.0666 163.674 22.4073C164.307 22.7492 164.77 23.1442 165.063 23.592C165.357 24.0249 165.472 24.6006 165.41 25.3189C165.307 26.4863 164.801 27.3619 163.89 27.9458C162.98 28.5297 161.806 28.7588 160.369 28.6331Z" fill="white"/>
<path fill-rule="evenodd" clip-rule="evenodd" d="M8.90142 7.60555e-05C8.90142 1.55581 7.64025 2.81698 6.08451 2.81698C4.52878 2.81698 3.2676 1.55581 3.2676 7.60555e-05V0H0V35.0423H3.2676C3.2677 33.4867 4.52883 32.2256 6.08451 32.2256C7.64019 32.2256 8.90132 33.4867 8.90142 35.0423H102.761V31.3239C104.255 31.3172 105.465 30.0586 105.465 28.507C105.465 26.9554 104.255 25.6968 102.761 25.6901V24.0001C104.255 23.9934 105.465 22.7348 105.465 21.1833C105.465 19.6317 104.255 18.3731 102.761 18.3664V16.6762C104.255 16.6695 105.465 15.4109 105.465 13.8593C105.465 12.3077 104.255 11.0491 102.761 11.0424V9.35208C104.255 9.34539 105.465 8.08679 105.465 6.5352C105.465 4.98361 104.255 3.72501 102.761 3.71832V0H8.90142V7.60555e-05ZM51.3338 25.4649V13.6565H54.3535V25.4649H51.3338ZM51.3338 12.0114V9.01419H54.3535V12.0114H51.3338ZM22.6484 24.8565C22.393 24.9616 22.085 25.0818 21.7244 25.217C21.3639 25.3523 20.9732 25.4574 20.5526 25.5325C20.147 25.6227 19.7338 25.6677 19.3132 25.6677C18.7573 25.6677 18.2465 25.5701 17.7808 25.3748C17.315 25.1795 16.9394 24.8715 16.654 24.4508C16.3836 24.0152 16.2484 23.4518 16.2484 22.7607V15.9776H14.6934V13.6565H16.2484V9.82546H19.2681V13.6565H21.747V15.9776H19.2681V21.7466C19.2831 22.1522 19.3958 22.4452 19.6061 22.6255C19.8164 22.8058 20.0794 22.8959 20.3948 22.8959C20.7103 22.8959 21.0183 22.8433 21.3188 22.7382C21.6193 22.633 21.8596 22.5429 22.0399 22.4677L22.6484 24.8565ZM29.5206 25.6903C28.5591 25.6903 27.6952 25.5325 26.929 25.217C26.1628 24.8865 25.5093 24.4358 24.9684 23.8649C24.4426 23.294 24.037 22.6405 23.7515 21.9044C23.4661 21.1682 23.3234 20.3945 23.3234 19.5832C23.3234 18.7569 23.4661 17.9757 23.7515 17.2396C24.037 16.5034 24.4426 15.8499 24.9684 15.279C25.5093 14.7081 26.1628 14.2649 26.929 13.9494C27.6952 13.6189 28.5591 13.4536 29.5206 13.4536C30.4821 13.4536 31.3384 13.6189 32.0896 13.9494C32.8558 14.2649 33.5093 14.7081 34.0502 15.279C34.591 15.8499 34.9966 16.5034 35.2671 17.2396C35.5525 17.9757 35.6952 18.7569 35.6952 19.5832C35.6952 20.3945 35.5525 21.1682 35.2671 21.9044C34.9966 22.6405 34.591 23.294 34.0502 23.8649C33.5243 24.4358 32.8783 24.8865 32.1121 25.217C31.3459 25.5325 30.4821 25.6903 29.5206 25.6903ZM26.4332 19.5832C26.4332 20.2743 26.5684 20.8903 26.8389 21.4311C27.1093 21.9569 27.4774 22.3701 27.9431 22.6706C28.4088 22.971 28.9347 23.1213 29.5206 23.1213C30.0915 23.1213 30.6098 22.971 31.0755 22.6706C31.5412 22.3551 31.9093 21.9344 32.1797 21.4086C32.4652 20.8677 32.6079 20.2518 32.6079 19.5607C32.6079 18.8846 32.4652 18.2762 32.1797 17.7353C31.9093 17.1945 31.5412 16.7738 31.0755 16.4734C30.6098 16.1729 30.0915 16.0227 29.5206 16.0227C28.9347 16.0227 28.4088 16.1804 27.9431 16.4959C27.4774 16.7964 27.1093 17.217 26.8389 17.7579C26.5684 18.2837 26.4332 18.8921 26.4332 19.5832ZM45.6884 25.4649H48.7081V18.0959C48.7081 17.525 48.6555 16.9616 48.5504 16.4058C48.4602 15.8499 48.2874 15.3541 48.0321 14.9184C47.7917 14.4677 47.4311 14.1147 46.9504 13.8593C46.4846 13.5888 45.8837 13.4536 45.1475 13.4536C44.4715 13.4536 43.8255 13.5513 43.2095 13.7466C42.6086 13.9269 42.0752 14.1973 41.6095 14.5579C41.1438 14.9034 40.7607 15.3316 40.4602 15.8424V13.6565H37.7334V25.4649H40.7532V18.5691C40.9034 18.0884 41.1438 17.6677 41.4743 17.3072C41.8048 16.9316 42.1729 16.6386 42.5785 16.4283C42.9992 16.218 43.4123 16.1128 43.818 16.1128C44.4039 16.1128 44.8621 16.3306 45.1926 16.7663C45.5231 17.202 45.6884 17.8931 45.6884 18.8396V25.4649ZM59.534 25.0818C60.195 25.3823 60.9162 25.5325 61.6974 25.5325C62.4936 25.5325 63.2448 25.3523 63.9509 24.9917C64.6721 24.6161 65.2279 24.0903 65.6185 23.4142V24.9015C65.6185 25.6677 65.4533 26.2912 65.1228 26.772C64.8073 27.2677 64.3791 27.6283 63.8382 27.8537C63.3124 28.094 62.7265 28.2142 62.0805 28.2142C61.3143 28.2142 60.5857 28.0565 59.8946 27.741C59.2185 27.4255 58.6551 26.9898 58.2044 26.4339L56.5594 28.0339C57.1903 28.8152 57.949 29.4161 58.8354 29.8368C59.7218 30.2724 60.8035 30.4903 62.0805 30.4903C63.3425 30.4903 64.4692 30.2649 65.4608 29.8142C66.4523 29.3786 67.226 28.7401 67.7819 27.8987C68.3528 27.0724 68.6383 26.0734 68.6383 24.9015V13.6565H66.0016V15.7297C65.5509 15.0386 64.98 14.4903 64.2889 14.0846C63.5979 13.664 62.7941 13.4536 61.8777 13.4536C61.0664 13.4536 60.3227 13.6114 59.6467 13.9269C58.9857 14.2273 58.4072 14.663 57.9115 15.2339C57.4307 15.7898 57.0551 16.4358 56.7847 17.172C56.5143 17.9081 56.3791 18.7043 56.3791 19.5607C56.3791 20.372 56.5068 21.1382 56.7622 21.8593C57.0176 22.5804 57.3781 23.2189 57.8439 23.7748C58.3246 24.3307 58.888 24.7663 59.534 25.0818ZM63.658 22.9635C63.3575 23.0687 63.042 23.1213 62.7115 23.1213C62.2608 23.1213 61.8326 23.0311 61.427 22.8508C61.0364 22.6706 60.6908 22.4227 60.3904 22.1072C60.1049 21.7917 59.8796 21.4236 59.7143 21.0029C59.549 20.5823 59.4664 20.1316 59.4664 19.6508C59.4664 19.1851 59.534 18.7419 59.6692 18.3213C59.8195 17.8856 60.0298 17.495 60.3002 17.1494C60.5706 16.7889 60.8936 16.5109 61.2692 16.3156C61.6448 16.1203 62.0655 16.0227 62.5312 16.0227C62.9669 16.0227 63.38 16.1203 63.7706 16.3156C64.1763 16.4959 64.5368 16.7588 64.8523 17.1043C65.1828 17.4499 65.4382 17.8555 65.6185 18.3213V21.1382C65.5134 21.3936 65.3631 21.649 65.1678 21.9044C64.9725 22.1447 64.7472 22.3551 64.4918 22.5353C64.2364 22.7156 63.9584 22.8583 63.658 22.9635ZM82.3349 25.4649H79.3152V18.8396C79.3152 17.9231 79.1349 17.2396 78.7744 16.7889C78.4288 16.3381 77.9481 16.1128 77.3321 16.1128C76.9715 16.1128 76.5884 16.218 76.1828 16.4283C75.7772 16.6386 75.4091 16.9316 75.0786 17.3072C74.7631 17.6677 74.5302 18.0884 74.38 18.5691V25.4649H71.3603V9.01419H74.38V15.8424C74.8157 15.0912 75.4091 14.5053 76.1603 14.0846C76.9115 13.664 77.7302 13.4536 78.6166 13.4536C79.3828 13.4536 80.0063 13.5888 80.487 13.8593C80.9678 14.1147 81.3434 14.4677 81.6138 14.9184C81.8842 15.3541 82.072 15.8499 82.1772 16.4058C82.2824 16.9466 82.3349 17.51 82.3349 18.0959V25.4649ZM91.0468 25.217C91.4073 25.0818 91.7153 24.9616 91.9707 24.8565L91.3622 22.4677C91.182 22.5429 90.9416 22.633 90.6411 22.7382C90.3406 22.8433 90.0327 22.8959 89.7172 22.8959C89.4017 22.8959 89.1388 22.8058 88.9284 22.6255C88.7181 22.4452 88.6054 22.1522 88.5904 21.7466V15.9776H91.0693V13.6565H88.5904V9.82546H85.5707V13.6565H84.0157V15.9776H85.5707V22.7607C85.5707 23.4518 85.7059 24.0152 85.9763 24.4508C86.2618 24.8715 86.6374 25.1795 87.1031 25.3748C87.5688 25.5701 88.0796 25.6677 88.6355 25.6677C89.0561 25.6677 89.4693 25.6227 89.8749 25.5325C90.2956 25.4574 90.6862 25.3523 91.0468 25.217Z" fill="white"/>
</svg>
