<svg width="420" height="323" viewBox="0 0 420 323" fill="none" xmlns="http://www.w3.org/2000/svg">
<path fill-rule="evenodd" clip-rule="evenodd" d="M257.633 91.8305C265.474 86.2993 274.026 81.9087 283.029 78.7632C281.035 74.7985 278.73 70.9864 276.129 67.3643C269.492 58.121 261.069 50.3025 251.357 44.3714C241.646 38.4403 230.844 34.517 219.59 32.8335C208.336 31.1501 196.858 31.7408 185.837 34.5706C174.815 37.4003 164.473 42.4118 155.421 49.3085C146.37 56.2052 138.794 64.847 133.141 74.7228C127.488 84.5986 123.873 95.5079 122.51 106.805C121.147 118.103 122.063 129.558 125.205 140.495L94.5474 149.302C92.0379 140.566 90.5612 131.589 90.1319 122.553C86.8091 122.397 83.4697 122.537 80.1533 122.976C72.1465 124.035 64.4636 126.814 57.6313 131.121C50.7991 135.428 44.9792 141.162 40.5708 147.929C36.1624 154.696 33.2697 162.337 32.0911 170.327C30.9126 178.317 31.476 186.468 33.7428 194.22C36.0096 201.972 39.9262 209.142 45.2239 215.238C50.5216 221.334 57.0751 226.213 64.435 229.539C71.5917 232.773 79.3463 234.465 87.1948 234.508L87.1953 234.5C131.365 204.926 162.407 198.374 223.695 207L216.195 237C185.824 231.273 165.944 232.685 144.134 239.717C125.902 245.596 112.292 262.946 118.695 281C174.239 260.641 207.111 258.474 270.695 281L257.195 309.5C197.904 288.345 163.612 291.798 100.695 323C92.3538 300.393 88.1522 284.27 86.906 265.998C74.6846 265.915 62.6114 263.273 51.4663 258.236C39.9682 253.04 29.7299 245.418 21.4535 235.894C13.177 226.37 7.05836 215.169 3.517 203.058C-0.0243561 190.948 -0.904608 178.214 0.936612 165.732C2.77783 153.249 7.29697 141.312 14.1841 130.74C21.0712 120.168 30.1634 111.21 40.8372 104.481C51.511 97.752 63.5138 93.4111 76.0225 91.756C81.6282 91.0143 87.2762 90.8198 92.8877 91.166C95.4472 79.8604 99.6777 68.9757 105.458 58.8771C113.23 45.2997 123.646 33.4189 136.089 23.9373C148.533 14.4556 162.752 7.56587 177.905 3.67546C193.057 -0.214956 208.837 -1.02699 224.309 1.28739C239.781 3.60177 254.632 8.99555 267.983 17.1497C281.334 25.3038 292.914 36.0527 302.039 48.7606C307.455 56.3045 311.941 64.4478 315.416 73.0122C326.174 72.8468 336.922 74.3675 347.264 77.5465C362.303 82.1693 376.083 90.1758 387.546 100.952C399.01 111.728 407.852 124.986 413.396 139.711C418.939 154.435 421.035 170.234 419.524 185.894C418.012 201.555 412.933 216.661 404.677 230.054C396.42 243.446 385.205 254.769 371.892 263.154C358.58 271.539 343.523 276.762 327.878 278.424L324.631 247.854C335.607 246.689 346.17 243.024 355.509 237.142C364.848 231.259 372.716 223.316 378.508 213.921C384.301 204.525 387.864 193.928 388.924 182.941C389.984 171.955 388.514 160.872 384.625 150.542C380.736 140.212 374.533 130.911 366.491 123.351C358.449 115.791 348.781 110.174 338.231 106.931C327.681 103.688 316.528 102.905 305.628 104.642C294.728 106.379 284.371 110.59 275.352 116.952L257.633 91.8305ZM275 254C288.255 254 299 243.255 299 230C299 216.745 288.255 206 275 206C261.745 206 251 216.745 251 230C251 243.255 261.745 254 275 254Z" fill="#503CF5"/>
</svg>
