<svg width="259" height="61" viewBox="0 0 259 61" fill="none" xmlns="http://www.w3.org/2000/svg">
<path d="M9.5423 59.3241V48.8354L15.2204 42.9208L25.3936 59.3241H36.4342L21.9236 35.8232L36.7497 20.3663H24.6838L9.5423 36.6907V0.650757H0V59.3241H9.5423Z" fill="#111315"/>
<path d="M47.0874 12.5589C50.2419 12.5589 52.8443 9.95647 52.8443 6.72313C52.8443 3.48979 50.2419 0.966205 47.0874 0.966205C43.7752 0.966205 41.1727 3.48979 41.1727 6.72313C41.1727 9.95647 43.7752 12.5589 47.0874 12.5589ZM42.2768 59.3241H51.898V20.3663H42.2768V59.3241Z" fill="#111315"/>
<path d="M75.0871 59.3241V28.4102H82.6578V20.3663H75.0871V8.22151H65.4659V20.3663H57.974V28.4102H65.4659V59.3241H75.0871Z" fill="#111315"/>
<path d="M85.967 39.7663C85.967 52.1476 93.6954 60.3493 105.525 60.3493C115.698 60.3493 123.269 54.1192 124.452 45.0501H114.752C113.726 49.3086 110.335 51.6745 105.525 51.6745C99.3735 51.6745 95.5881 47.1005 95.5881 39.7663C95.5881 32.4321 99.689 27.7793 105.84 27.7793C110.414 27.7793 113.648 30.0663 114.752 34.4826H124.373C123.348 25.098 116.092 19.1833 105.446 19.1833C93.932 19.1833 85.967 27.7004 85.967 39.7663Z" fill="#111315"/>
<path d="M141.234 59.3241V38.0313C141.234 32.1956 144.783 27.937 150.855 27.937C155.744 27.937 158.978 31.0915 158.978 37.637V59.3241H168.599V35.35C168.599 25.2557 163.552 19.1833 153.931 19.1833C148.331 19.1833 143.757 21.628 141.313 25.4134V0.650757H131.613V59.3241H141.234Z" fill="#111315"/>
<path d="M195.48 60.3493C205.654 60.3493 212.751 55.2233 214.407 46.7062H205.496C204.392 50.4127 200.922 52.4631 195.638 52.4631C189.25 52.4631 185.623 48.9932 184.913 42.1322L214.25 42.0533V39.1354C214.25 26.9907 206.837 19.1833 195.165 19.1833C183.73 19.1833 175.765 27.6216 175.765 39.8452C175.765 51.9111 183.888 60.3493 195.48 60.3493ZM195.244 27.0695C201.001 27.0695 204.707 30.6183 204.707 35.9809H185.149C186.096 30.1451 189.566 27.0695 195.244 27.0695Z" fill="#111315"/>
<path d="M231.571 59.3241V38.3468C231.571 32.0378 235.199 27.937 241.113 27.937C246.081 27.937 249.315 31.0915 249.315 37.637V59.3241H258.936V35.35C258.936 25.2557 253.889 19.1833 244.11 19.1833C238.826 19.1833 234.094 21.4703 231.65 25.4134L230.861 20.3663H221.95V59.3241H231.571Z" fill="#111315"/>
</svg>
