<svg width="105" height="105" viewBox="0 0 105 105" fill="none" xmlns="http://www.w3.org/2000/svg">
<rect width="105" height="105" rx="10.5" fill="#B024F1"/>
<path fill-rule="evenodd" clip-rule="evenodd" d="M18.9468 24.92C19.5249 21.233 20.0597 17.8219 19.7654 16.1058C19.1498 12.5166 34.4447 24.0798 38.2974 32.9088C40.1264 36.9106 39.5575 41.5824 36.4946 44.627C32.4662 48.6314 25.6488 48.3045 21.2676 43.897C18.6332 41.2467 17.4795 37.7245 17.8541 34.4665C17.8772 31.7419 18.4293 28.2204 18.9468 24.92ZM35.7596 49.0015C36.8085 48.4699 37.7858 47.7727 38.6554 46.9083C39.3604 46.2076 39.9558 45.4354 40.4426 44.6111C40.6073 44.7241 40.7641 44.8537 40.9104 45.0001L77.7815 81.8712C79.0649 83.1546 79.0649 85.2355 77.7815 86.5189C76.4981 87.8023 74.4172 87.8023 73.1338 86.5189L36.2627 49.6478C36.0644 49.4494 35.8967 49.232 35.7596 49.0015ZM72.6803 18.1264C73.4352 17.3543 74.6717 17.3366 75.4484 18.0866C76.2285 18.8399 76.2502 20.083 75.4969 20.8631L60.6884 36.1978L65.2888 40.7749L79.9829 25.5587C80.7339 24.781 81.9732 24.7593 82.7509 25.5104C83.5286 26.2614 83.5502 27.5006 82.7992 28.2783L68.0609 43.5403L72.6315 48.1109L87.9254 33.3418C88.7036 32.5903 89.9436 32.6119 90.6951 33.3901C91.4459 34.1676 91.4251 35.4063 90.6485 36.1581L75.4158 50.9055C74.2609 52.059 72.8905 52.9742 71.3824 53.5988C69.8722 54.2244 68.2534 54.5464 66.6187 54.5464C64.984 54.5464 63.3653 54.2244 61.855 53.5988C61.3723 53.3989 60.9037 53.1692 60.4517 52.9114L56.7733 56.5899L52.1256 51.9422L55.8044 48.2634C55.5471 47.812 55.3177 47.3439 55.118 46.8619C54.4924 45.3516 54.1704 43.7328 54.1704 42.0981C54.1704 40.4634 54.4924 38.8447 55.118 37.3344C55.731 35.8546 56.6194 34.5457 57.7423 33.4062L57.7421 33.4058L72.6803 18.1264ZM43.3625 60.7052L48.0102 65.3529L27.3045 86.0586C26.021 87.3421 23.9402 87.3421 22.6568 86.0586C21.3733 84.7752 21.3733 82.6944 22.6568 81.411L43.3625 60.7052Z" fill="white"/>
</svg>
